# File created by Blade
# Date/Time:  Tue Jan 27 19:58:39 2015
#---------------------------------------------------------
:version 1.10
:name HOM
:units
  mass 1.0
  length 1.000000
  angle deg
:documentation
     Acclaim Skeleton File
:root
   axis xyz
   order TX TY TZ RX RY RZ
   position 0.000000 0.000000 0.000000
   orientation 0 0 0
:bonedata
   begin
      id 1
      name Spine_dum
      direction 0.000000 1.000000 0.000000
      length 6.116652
      axis 0.0 0.0 0.0 xyz
   end
   begin
      id 2
      name LeftUpLeg_dum
      direction 1.000000 0.000000 0.000000
      length 4.711765
      axis 0.0 0.0 0.0 xyz
   end
   begin
      id 3
      name RightUpLeg_dum
      direction -1.000000 0.000000 0.000000
      length 4.711765
      axis 0.0 0.0 0.0 xyz
   end
   begin
      id 4
      name Spine
      direction 0.000000 1.000000 0.000000
      length 0.000000
      axis 0.0 0.0 0.0 xyz
      dof rx ry rz
   end
   begin
      id 5
      name Spine_dum1
      direction 0.000000 1.000000 0.000000
      length 15.225563
      axis 0.0 0.0 0.0 xyz
   end
   begin
      id 6
      name Spine_dum2
      direction 0.000000 1.000000 0.000000
      length 8.977654
      axis 0.0 0.0 0.0 xyz
   end
   begin
      id 7
      name Spine_dum3
      direction 0.000000 1.000000 0.000000
      length 8.977654
      axis 0.0 0.0 0.0 xyz
   end
   begin
      id 8
      name Head
      direction 0.000000 1.000000 0.000000
      length 4.527550
      axis 0.0 0.0 0.0 xyz
      dof rx ry rz
   end
   begin
      id 9
      name LeftShoulder
      direction 1.000000 0.000000 0.000000
      length 7.110130
      axis 0.0 0.0 -90.0 xyz
      dof rx ry rz
   end
   begin
      id 10
      name LeftArm
      direction 1.000000 0.000000 0.000000
      length 10.398341
      axis 0.0 0.0 -90.0 xyz
      dof rx ry rz
   end
   begin
      id 11
      name LeftForeArm
      direction 1.000000 0.000000 0.000000
      length 8.888997
      axis 0.0 0.0 -90.0 xyz
      dof ry rz rx
   end
   begin
      id 12
      name LeftHand
      direction 0.000000 0.000000 0.000000
      length 0.000000
      axis 0.0 0.0 -90.0 xyz
      dof rx ry rz
   end
   begin
      id 13
      name LeftHand_dum1
      direction 0.000000 0.000000 0.000000
      length 0.000000
      axis 0.0 0.0 -90.0 xyz
   end
   begin
      id 14
      name LeftHand_dum2
      direction 1.000000 0.000000 0.000000
      length 3.937000
      axis 0.0 0.0 -90.0 xyz
   end
   begin
      id 15
      name LeftHandThumb1
      direction 0.000000 0.000000 1.000000
      length 3.937000
      axis 0.0 0.0 -90.0 xyz
      dof rx rz ry
   end
   begin
      id 16
      name RightShoulder
      direction -1.000000 0.000000 0.000000
      length 7.110130
      axis 0.0 0.0 90.0 xyz
      dof rx ry rz
   end
   begin
      id 17
      name RightArm
      direction -1.000000 0.000000 0.000000
      length 10.398341
      axis 0.0 0.0 90.0 xyz
      dof rx ry rz
   end
   begin
      id 18
      name RightForeArm
      direction -1.000000 0.000000 0.000000
      length 8.888997
      axis 0.0 0.0 90.0 xyz
      dof ry rz rx
   end
   begin
      id 19
      name RightHand
      direction 0.000000 0.000000 0.000000
      length 0.000000
      axis 0.0 0.0 90.0 xyz
      dof rx ry rz
   end
   begin
      id 20
      name RightHand_dum1
      direction 0.000000 0.000000 0.000000
      length 0.000000
      axis 0.0 0.0 90.0 xyz
   end
   begin
      id 21
      name RightHand_dum2
      direction -1.000000 0.000000 0.000000
      length 3.937000
      axis 0.0 0.0 90.0 xyz
   end
   begin
      id 22
      name RightHandThumb1
      direction 0.000000 0.000000 1.000000
      length 3.937000
      axis 0.0 0.0 90.0 xyz
      dof rx rz ry
   end
   begin
      id 23
      name LeftUpLeg
      direction 0.000000 -1.000000 0.000000
      length 15.510451
      axis 0.0 0.0 0.0 xyz
      dof rx ry rz
   end
   begin
      id 24
      name LeftLeg
      direction 0.000000 -1.000000 0.000000
      length 14.858061
      axis 0.0 0.0 0.0 xyz
      dof rx ry rz
   end
   begin
      id 25
      name LeftFoot
      direction 0.000000 -0.258819 0.965926
      length 5.128852
      axis 15.0 0.0 0.0 xyz
      dof rx ry rz
   end
   begin
      id 26
      name LeftToeBase
      direction 0.000000 0.000000 1.000000
      length 2.952750
      axis 0.0 0.0 0.0 xyz
      dof rx ry rz
   end
   begin
      id 27
      name RightUpLeg
      direction 0.000000 -1.000000 0.000000
      length 15.510451
      axis 0.0 0.0 0.0 xyz
      dof rx ry rz
   end
   begin
      id 28
      name RightLeg
      direction 0.000000 -1.000000 0.000000
      length 14.858061
      axis 0.0 0.0 0.0 xyz
      dof rx ry rz
   end
   begin
      id 29
      name RightFoot
      direction 0.000000 -0.258819 0.965926
      length 5.128852
      axis 15.0 0.0 0.0 xyz
      dof rx ry rz
   end
   begin
      id 30
      name RightToeBase
      direction 0.000000 0.000000 1.000000
      length 2.952750
      axis 0.0 0.0 0.0 xyz
      dof rx ry rz
   end
:hierarchy
   begin
      root Spine_dum LeftUpLeg_dum RightUpLeg_dum
      Spine_dum Spine
      LeftUpLeg_dum LeftUpLeg
      RightUpLeg_dum RightUpLeg
      Spine Spine_dum1 Spine_dum2 Spine_dum3
      Spine_dum1 Head
      Spine_dum2 LeftShoulder
      Spine_dum3 RightShoulder
      LeftShoulder LeftArm
      LeftArm LeftForeArm
      LeftForeArm LeftHand
      LeftHand LeftHand_dum1 LeftHand_dum2
      LeftHand_dum1 LeftHandThumb1
      RightShoulder RightArm
      RightArm RightForeArm
      RightForeArm RightHand
      RightHand RightHand_dum1 RightHand_dum2
      RightHand_dum1 RightHandThumb1
      LeftUpLeg LeftLeg
      LeftLeg LeftFoot
      LeftFoot LeftToeBase
      RightUpLeg RightLeg
      RightLeg RightFoot
      RightFoot RightToeBase
   end

# File created by Blade
# Date/Time:  Tue Jan 27 19:58:31 2015
# Frame Rate: 120.000 fps
#------------------------------------------------------
:FULLY-SPECIFIED
:DEGREES
242
root 4.827904 33.068029 3.032456 -12.954155 29.621568 -10.952566
Spine 13.385355 -11.452768 2.260257
Head -3.999845 -12.327455 10.978167
LeftShoulder -15.311226 -1.602560 31.318199
LeftArm -11.339374 -20.772538 -77.653714
LeftForeArm 0.935398 0.000000 110.019021
LeftHand 7.976847 -0.000000 10.768228
LeftHandThumb1 -26.253704 0.000000 33.147579
RightShoulder -25.996671 -24.230308 -19.393598
RightArm -1.161816 -9.426205 89.781583
RightForeArm -16.219415 -0.000000 19.989292
RightHand 18.108544 -0.000000 7.997959
RightHandThumb1 -24.326973 -0.000000 -32.862282
LeftUpLeg 8.821685 -2.885205 4.055569
LeftLeg 4.853917 -0.000000 -0.000000
LeftFoot -12.540770 0.980071 -16.200579
LeftToeBase 24.981433 -0.000000 -0.000000
RightUpLeg -73.353247 16.767624 21.718228
RightLeg 105.349100 -0.000000 -0.000000
RightFoot 11.957988 -31.317187 17.442765
RightToeBase 12.828226 -0.000000 -0.000000
243
root 4.823428 33.079616 3.075664 -13.225547 30.407941 -11.108851
Spine 13.478239 -12.223757 2.100111
Head -3.797143 -12.440908 11.059169
LeftShoulder -15.218522 -1.591311 31.399817
LeftArm -11.284702 -20.800507 -77.743283
LeftForeArm 0.978723 -0.000000 109.894355
LeftHand 7.993951 0.000000 10.640285
LeftHandThumb1 -26.253704 0.000000 33.147579
RightShoulder -26.354784 -24.564924 -19.289881
RightArm -1.630065 -9.148051 89.814939
RightForeArm -16.277982 -0.000000 19.818613
RightHand 18.027678 0.000000 8.409933
RightHandThumb1 -24.326973 -0.000000 -32.862282
LeftUpLeg 8.885756 -3.104576 4.148285
LeftLeg 4.853475 -0.000000 -0.000000
LeftFoot -12.337437 0.591554 -16.081465
LeftToeBase 24.984128 -0.000000 -0.000000
RightUpLeg -73.472228 17.128155 22.086693
RightLeg 105.477060 -0.000000 -0.000000
RightFoot 11.998852 -31.313118 17.510510
RightToeBase 12.237437 -0.000000 -0.000000
244
root 4.821985 33.090884 3.120613 -13.545483 31.213938 -11.293998
Spine 13.616463 -13.049287 1.977664
Head -3.638357 -12.538426 11.062220
LeftShoulder -15.175451 -1.659897 31.457155
LeftArm -11.312740 -20.750672 -77.745520
LeftForeArm 0.780292 -0.000000 109.734493
LeftHand 8.167148 -0.000000 10.524337
LeftHandThumb1 -26.253704 0.000000 33.147579
RightShoulder -26.711669 -24.896629 -19.212756
RightArm -2.074272 -8.866561 89.857319
RightForeArm -16.277751 0.000000 19.616788
RightHand 17.945289 -0.000000 8.376811
RightHandThumb1 -24.326973 -0.000000 -32.862282
LeftUpLeg 8.974130 -3.379455 4.250723
LeftLeg 4.869337 -0.000000 -0.000000
LeftFoot -12.172289 0.218188 -15.962958
LeftToeBase 25.008598 -0.000000 -0.000000
RightUpLeg -73.582135 17.446711 22.434939
RightLeg 105.660013 -0.000000 -0.000000
RightFoot 11.915878 -31.142306 17.632244
RightToeBase 12.352044 -0.000000 -0.000000
245
root 4.826605 33.098878 3.159672 -13.820325 32.028103 -11.449977
Spine 13.720352 -13.890098 1.851180
Head -3.480977 -12.615692 11.031004
LeftShoulder -15.152171 -1.706770 31.479502
LeftArm -11.343732 -20.736585 -77.736802
LeftForeArm 0.636450 -0.000000 109.614176
LeftHand 8.361784 0.000000 10.187260
LeftHandThumb1 -26.253704 0.000000 33.147579
RightShoulder -27.011197 -25.186234 -19.181143
RightArm -2.586031 -8.491676 89.911357
RightForeArm -16.298238 -0.000000 19.452123
RightHand 17.889927 0.000000 8.479240
RightHandThumb1 -24.326973 -0.000000 -32.862282
LeftUpLeg 9.028916 -3.666593 4.308757
LeftLeg 4.878608 -0.000000 -0.000000
LeftFoot -12.004327 -0.171541 -15.898608
LeftToeBase 25.109004 -0.000000 -0.000000
RightUpLeg -73.768198 17.784971 22.705742
RightLeg 105.848532 -0.000000 -0.000000
RightFoot 12.089381 -31.016982 17.541841
RightToeBase 11.540345 -0.000000 -0.000000
246
root 4.832338 33.106831 3.202359 -14.112257 32.776100 -11.576344
Spine 13.860829 -14.654580 1.693234
Head -3.330733 -12.693789 11.014220
LeftShoulder -15.153229 -1.737994 31.483366
LeftArm -11.317782 -20.669228 -77.722090
LeftForeArm 0.443843 -0.000000 109.517707
LeftHand 8.580686 -0.000000 10.001078
LeftHandThumb1 -26.253704 0.000000 33.147579
RightShoulder -27.294123 -25.477213 -19.148934
RightArm -3.121724 -8.149497 89.978063
RightForeArm -16.312166 -0.000000 19.333505
RightHand 17.790390 0.000000 8.408973
RightHandThumb1 -24.326973 -0.000000 -32.862282
LeftUpLeg 9.159560 -3.851814 4.371056
LeftLeg 4.837399 -0.000000 -0.000000
LeftFoot -11.799304 -0.652095 -15.849741
LeftToeBase 25.249657 -0.000000 -0.000000
RightUpLeg -73.917012 18.154652 22.948137
RightLeg 106.022566 -0.000000 -0.000000
RightFoot 12.102380 -30.927837 17.608659
RightToeBase 11.646851 -0.000000 -0.000000
247
root 4.837888 33.114278 3.240826 -14.401287 33.516324 -11.694799
Spine 14.021213 -15.364748 1.534392
Head -3.240533 -12.806216 11.014899
LeftShoulder -15.143062 -1.813388 31.489781
LeftArm -11.286022 -20.601757 -77.696553
LeftForeArm 0.257336 -0.000000 109.408774
LeftHand 8.605813 -0.000000 9.785213
LeftHandThumb1 -26.253704 0.000000 33.147579
RightShoulder -27.629541 -25.757432 -19.106124
RightArm -3.616236 -7.836647 90.069930
RightForeArm -16.266810 0.000000 19.115532
RightHand 17.770586 -0.000000 8.528123
RightHandThumb1 -24.326973 -0.000000 -32.862282
LeftUpLeg 9.289035 -4.058366 4.413697
LeftLeg 4.787372 -0.000000 -0.000000
LeftFoot -11.587026 -1.097770 -15.817588
LeftToeBase 25.330308 -0.000000 -0.000000
RightUpLeg -74.107434 18.474556 23.143978
RightLeg 106.268589 -0.000000 -0.000000
RightFoot 11.932138 -30.729875 17.989437
RightToeBase 12.837715 -0.000000 -0.000000
